<svg xmlns="http://www.w3.org/2000/svg" width="26" height="26" viewBox="0 0 24 24" fill="none" class="injected-svg" data-src="https://cdn.hugeicons.com/icons/backward-02-solid-sharp.svg?v=1.0.1" xmlns:xlink="http://www.w3.org/1999/xlink" role="img" color="#000000">
<path d="M12.3695 5.34735C12.6047 5.48048 12.75 5.7298 12.75 6V18C12.75 18.2702 12.6047 18.5195 12.3695 18.6526C12.1344 18.7858 11.8458 18.7821 11.6141 18.6431L1.61413 12.6431C1.38822 12.5076 1.25 12.2634 1.25 12C1.25 11.7366 1.38822 11.4924 1.61413 11.3569L11.6141 5.35688C11.8458 5.21786 12.1344 5.21422 12.3695 5.34735Z" fill="#000000"></path>
<path d="M22.3695 5.34735C22.6047 5.48048 22.75 5.7298 22.75 6V18C22.75 18.2702 22.6047 18.5195 22.3695 18.6526C22.1344 18.7858 21.8458 18.7821 21.6141 18.6431L11.6141 12.6431C11.3882 12.5076 11.25 12.2634 11.25 12C11.25 11.7366 11.3882 11.4924 11.6141 11.3569L21.6141 5.35688C21.8458 5.21786 22.1344 5.21422 22.3695 5.34735Z" fill="#000000"></path>
</svg>